<?xml version='1.0' encoding='utf-8'?>
<svg xmlns="http://www.w3.org/2000/svg" width="980" height="879" viewBox="0 0 980 879" fill="none"> <rect x="0.429199" y="629.106" width="250" height="251" transform="rotate(-5.4968 0.429199 629.106)" fill="#AF7D64"/> <path d="M104.899 619.052L138.94 615.777L145.178 680.595L136.263 677.213L132.413 681.824L127.753 678.032L123.902 682.643L119.243 678.851L115.392 683.461L110.733 679.67L104.899 619.052Z" fill="#6F4936"/> <rect x="41.6716" y="823.772" width="58.9623" height="11.8396" rx="4" transform="rotate(-5.4968 41.6716 823.772)" fill="#383635"/> <rect x="37.2486" y="777.81" width="116.745" height="37.8868" rx="4" transform="rotate(-5.4968 37.2486 777.81)" fill="#6A5C54"/> <rect x="43.2594" y="840.271" width="58.9623" height="11.8396" rx="4" transform="rotate(-5.4968 43.2594 840.271)" fill="#383635"/> <rect x="44.8472" y="856.771" width="58.9623" height="11.8396" rx="4" transform="rotate(-5.4968 44.8472 856.771)" fill="#383635"/> <rect x="252.249" y="636.016" width="205.179" height="206" transform="rotate(-5.4968 252.249 636.016)" fill="#917060"/> <path d="M337.99 627.765L365.927 625.076L371.047 678.274L363.73 675.498L360.57 679.282L356.746 676.17L353.586 679.954L349.762 676.842L346.601 680.626L342.777 677.514L337.99 627.765Z" fill="#6F4936"/> <rect x="286.097" y="795.781" width="48.3913" height="9.71698" rx="4" transform="rotate(-5.4968 286.097 795.781)" fill="#383635"/> <rect x="282.467" y="758.06" width="95.8149" height="31.0943" rx="4" transform="rotate(-5.4968 282.467 758.06)" fill="#6A5C54"/> <rect x="287.401" y="809.323" width="48.3913" height="9.71698" rx="4" transform="rotate(-5.4968 287.401 809.323)" fill="#383635"/> <rect x="288.704" y="822.864" width="48.3913" height="9.71698" rx="4" transform="rotate(-5.4968 288.704 822.864)" fill="#383635"/> <rect x="170.614" y="324.403" width="250" height="234" transform="rotate(11.2921 170.614 324.403)" fill="#876F63"/> <path d="M273.535 344.954L307.071 351.65L295.184 411.182L287.571 405.65L282.608 408.671L279.187 403.976L274.224 406.997L270.803 402.302L265.84 405.323L262.419 400.628L273.535 344.954Z" fill="#6F4936"/> <rect x="156.492" y="509.552" width="58.9623" height="11.0377" rx="4" transform="rotate(11.2921 156.492 509.552)" fill="#383635"/> <rect x="164.921" y="467.338" width="116.745" height="35.3208" rx="4" transform="rotate(11.2921 164.921 467.338)" fill="#6A5C54"/> <rect x="153.466" y="524.706" width="58.9623" height="11.0377" rx="4" transform="rotate(11.2921 153.466 524.706)" fill="#383635"/> <rect x="150.441" y="539.859" width="58.9623" height="11.0377" rx="4" transform="rotate(11.2921 150.441 539.859)" fill="#383635"/> <rect x="246.415" y="116.052" width="250" height="231.996" transform="rotate(-6.38343 246.415 116.052)" fill="#936751"/> <path d="M350.717 104.383L384.703 100.581L391.395 160.396L382.465 157.469L378.65 161.821L373.968 158.42L370.153 162.772L365.471 159.37L361.657 163.723L356.975 160.321L350.717 104.383Z" fill="#6F4936"/> <rect x="289" y="295.179" width="58.9623" height="10.9432" rx="4" transform="rotate(-6.38343 289 295.179)" fill="#383635"/> <rect x="284.255" y="252.766" width="116.745" height="35.0182" rx="4" transform="rotate(-6.38343 284.255 252.766)" fill="#6A5C54"/> <rect x="290.703" y="310.405" width="58.9623" height="10.9432" rx="4" transform="rotate(-6.38343 290.703 310.405)" fill="#383635"/> <rect x="292.407" y="325.63" width="58.9623" height="10.9432" rx="4" transform="rotate(-6.38343 292.407 325.63)" fill="#383635"/> <rect x="721.233" y="550.699" width="250" height="234" transform="rotate(84.5032 721.233 550.699)" fill="#85533A"/> <path d="M731.287 655.169L734.562 689.21L674.134 695.025L677.232 686.138L672.906 682.26L676.413 677.628L672.087 673.75L675.594 669.118L671.268 665.24L674.775 660.608L731.287 655.169Z" fill="#6F4936"/> <rect x="539.897" y="590.659" width="58.9623" height="11.0377" rx="4" transform="rotate(84.5032 539.897 590.659)" fill="#383635"/> <rect x="582.746" y="586.535" width="116.745" height="35.3208" rx="4" transform="rotate(84.5032 582.746 586.535)" fill="#6A5C54"/> <rect x="524.515" y="592.139" width="58.9623" height="11.0377" rx="4" transform="rotate(84.5032 524.515 592.139)" fill="#383635"/> <rect x="509.133" y="593.619" width="58.9623" height="11.0377" rx="4" transform="rotate(84.5032 509.133 593.619)" fill="#383635"/> <rect x="943.237" y="414.809" width="374" height="234" transform="rotate(84.5032 943.237 414.809)" fill="#855740"/> <path d="M947.662 460.789L955.065 537.722L894.637 543.537L896.702 523.927L891.86 514.687L894.852 504.694L890.01 495.454L893.001 485.461L888.159 476.221L891.15 466.228L947.662 460.789Z" fill="#6F4936"/> <rect x="762.094" y="453.337" width="61" height="11" rx="4" transform="rotate(84.5032 762.094 453.337)" fill="#383635"/> <rect x="804.897" y="449.219" width="133" height="36" rx="4" transform="rotate(84.5032 804.897 449.219)" fill="#6A5C54"/> <rect x="746.168" y="454.87" width="61" height="11" rx="4" transform="rotate(84.5032 746.168 454.87)" fill="#383635"/> <rect x="731.237" y="456.307" width="61" height="11" rx="4" transform="rotate(84.5032 731.237 456.307)" fill="#383635"/> <rect x="660.339" width="374" height="234" transform="rotate(43.3301 660.339 0)" fill="#855740"/> <path d="M886.659 303.863L834.162 360.585L721.575 256.384L741.996 248.957L741.261 235.113L755.121 234.777L754.386 220.933L768.245 220.596L767.51 206.752L781.369 206.416L886.659 303.863Z" fill="#AF9689"/> <rect x="549.354" y="148.254" width="61" height="11" rx="4" transform="rotate(43.3301 549.354 148.254)" fill="#383635"/> <rect x="578.86" y="116.975" width="133" height="36" rx="4" transform="rotate(43.3301 578.86 116.975)" fill="#6A5C54"/> <rect x="538.375" y="159.893" width="61" height="11" rx="4" transform="rotate(43.3301 538.375 159.893)" fill="#383635"/> <rect x="528.082" y="170.804" width="61" height="11" rx="4" transform="rotate(43.3301 528.082 170.804)" fill="#383635"/> <rect x="644.721" y="308.917" width="250" height="234" transform="rotate(84.5032 644.721 308.917)" fill="#B47F65"/> <path d="M654.774 413.387L658.05 447.428L597.622 453.243L600.719 444.356L596.393 440.477L599.9 435.845L595.574 431.967L599.081 427.335L594.755 423.457L598.262 418.825L654.774 413.387Z" fill="#6F4936"/> <rect x="463.384" y="348.876" width="58.9623" height="11.0377" rx="4" transform="rotate(84.5032 463.384 348.876)" fill="#383635"/> <rect x="506.233" y="344.753" width="116.745" height="35.3208" rx="4" transform="rotate(84.5032 506.233 344.753)" fill="#6A5C54"/> <rect x="448.002" y="350.356" width="58.9623" height="11.0377" rx="4" transform="rotate(84.5032 448.002 350.356)" fill="#383635"/> <rect x="432.621" y="351.837" width="58.9623" height="11.0377" rx="4" transform="rotate(84.5032 432.621 351.837)" fill="#383635"/> </svg>